<?xml version="1.0" encoding="UTF-8" standalone="no"?>
<!DOCTYPE svg PUBLIC "-//W3C//DTD SVG 1.1//EN"
 "http://www.w3.org/Graphics/SVG/1.1/DTD/svg11.dtd">
<!-- Generated by graphviz version 9.0.0 (20230911.1827)
 -->
<!-- Title: vulnrichment Pages: 1 -->
<svg width="463pt" height="1963pt"
 viewBox="0.00 0.00 463.00 1962.50" xmlns="http://www.w3.org/2000/svg" xmlns:xlink="http://www.w3.org/1999/xlink">
<g id="graph0" class="graph" transform="scale(1 1) rotate(0) translate(4 1958.5)">
<title>vulnrichment</title>
<polygon fill="white" stroke="none" points="-4,4 -4,-1958.5 459,-1958.5 459,4 -4,4"/>
<text text-anchor="middle" x="227.5" y="-20.7" font-family="Helvetica,sans-Serif" font-size="14.00">CISA Vulnrichment Process</text>
<text text-anchor="middle" x="227.5" y="-5.7" font-family="Helvetica,sans-Serif" font-size="14.00"> (work in progress)</text>
<g id="clust1" class="cluster">
<title>cluster_new</title>
</g>
<g id="clust2" class="cluster">
<title>cluster_triage</title>
<polygon fill="none" stroke="black" points="141,-976 141,-1537.4 395,-1537.4 395,-976 141,-976"/>
<text text-anchor="end" x="287.12" y="-1520.1" font-family="Helvetica,sans-Serif" font-size="14.00">Triage</text>
</g>
<g id="clust3" class="cluster">
<title>cluster_update</title>
<polygon fill="none" stroke="black" stroke-dasharray="5,2" points="85,-1565.15 85,-1750.7 201,-1750.7 201,-1565.15 85,-1565.15"/>
<text text-anchor="middle" x="143" y="-1733.4" font-family="Helvetica,sans-Serif" font-size="14.00">Update</text>
</g>
<g id="clust4" class="cluster">
<title>cluster_publish</title>
<polygon fill="none" stroke="black" points="88,-500.5 88,-957 266,-957 266,-500.5 88,-500.5"/>
<text text-anchor="middle" x="177" y="-939.7" font-family="Helvetica,sans-Serif" font-size="14.00">Publish</text>
</g>
<g id="clust5" class="cluster">
<title>cluster_enrich</title>
<polygon fill="none" stroke="black" points="306,-46 306,-957 447,-957 447,-46 306,-46"/>
<text text-anchor="middle" x="376.5" y="-939.7" font-family="Helvetica,sans-Serif" font-size="14.00">Enrich</text>
</g>
<!-- start -->
<g id="node1" class="node">
<title>start</title>
<path fill="none" stroke="black" d="M223,-1915.5C223,-1915.5 175,-1915.5 175,-1915.5 169,-1915.5 163,-1909.5 163,-1903.5 163,-1903.5 163,-1877.1 163,-1877.1 163,-1871.1 169,-1865.1 175,-1865.1 175,-1865.1 223,-1865.1 223,-1865.1 229,-1865.1 235,-1871.1 235,-1877.1 235,-1877.1 235,-1903.5 235,-1903.5 235,-1909.5 229,-1915.5 223,-1915.5"/>
<text text-anchor="middle" x="199" y="-1886.43" font-family="Helvetica,sans-Serif" font-size="10.00">Start</text>
</g>
<!-- new -->
<g id="node3" class="node">
<title>new</title>
<polygon fill="none" stroke="black" points="199,-1828.1 148.89,-1802.9 199,-1777.7 249.11,-1802.9 199,-1828.1"/>
<text text-anchor="middle" x="199" y="-1799.03" font-family="Helvetica,sans-Serif" font-size="10.00">New CVE?</text>
</g>
<!-- start&#45;&gt;new -->
<g id="edge5" class="edge">
<title>start&#45;&gt;new</title>
<path fill="none" stroke="black" d="M199,-1865.06C199,-1857.19 199,-1848.29 199,-1839.76"/>
<polygon fill="black" stroke="black" points="202.5,-1840.01 199,-1830.01 195.5,-1840.01 202.5,-1840.01"/>
</g>
<!-- stop -->
<g id="node2" class="node">
<title>stop</title>
<path fill="none" stroke="black" d="M92,-471.5C92,-471.5 44,-471.5 44,-471.5 38,-471.5 32,-465.5 32,-459.5 32,-459.5 32,-433.1 32,-433.1 32,-427.1 38,-421.1 44,-421.1 44,-421.1 92,-421.1 92,-421.1 98,-421.1 104,-427.1 104,-433.1 104,-433.1 104,-459.5 104,-459.5 104,-465.5 98,-471.5 92,-471.5"/>
<text text-anchor="middle" x="68" y="-442.42" font-family="Helvetica,sans-Serif" font-size="10.00">Stop</text>
</g>
<!-- update -->
<g id="node4" class="node">
<title>update</title>
<polygon fill="none" stroke="black" stroke-dasharray="5,2" points="143,-1719.7 96.15,-1694.5 143,-1669.3 189.85,-1694.5 143,-1719.7"/>
<text text-anchor="middle" x="143" y="-1696.25" font-family="Helvetica,sans-Serif" font-size="10.00">Updated</text>
<text text-anchor="middle" x="143" y="-1685" font-family="Helvetica,sans-Serif" font-size="10.00"> CVE?</text>
</g>
<!-- new&#45;&gt;update -->
<g id="edge17" class="edge">
<title>new&#45;&gt;update</title>
<path fill="none" stroke="black" stroke-dasharray="5,2" d="M188.73,-1782.38C180.23,-1766.24 168.03,-1743.05 158.37,-1724.7"/>
<polygon fill="black" stroke="black" points="161.48,-1723.09 153.72,-1715.87 155.28,-1726.35 161.48,-1723.09"/>
<text text-anchor="middle" x="188.11" y="-1758.72" font-family="Helvetica,sans-Serif" font-size="9.00">no</text>
</g>
<!-- triage_start -->
<g id="node24" class="node">
<title>triage_start</title>
<path fill="none" stroke="black" d="M253,-1506.4C253,-1506.4 205,-1506.4 205,-1506.4 199,-1506.4 193,-1500.4 193,-1494.4 193,-1494.4 193,-1468 193,-1468 193,-1462 199,-1456 205,-1456 205,-1456 253,-1456 253,-1456 259,-1456 265,-1462 265,-1468 265,-1468 265,-1494.4 265,-1494.4 265,-1500.4 259,-1506.4 253,-1506.4"/>
<text text-anchor="middle" x="229" y="-1482.95" font-family="Helvetica,sans-Serif" font-size="10.00">Start</text>
<text text-anchor="middle" x="229" y="-1471.7" font-family="Helvetica,sans-Serif" font-size="10.00">triage</text>
</g>
<!-- new&#45;&gt;triage_start -->
<g id="edge6" class="edge">
<title>new&#45;&gt;triage_start</title>
<path fill="none" stroke="black" d="M201.85,-1778.72C202.9,-1769.95 204.05,-1759.87 205,-1750.7 213.59,-1667.52 221.88,-1569.66 226.1,-1518.12"/>
<polygon fill="black" stroke="black" points="229.59,-1518.42 226.92,-1508.16 222.62,-1517.85 229.59,-1518.42"/>
<text text-anchor="middle" x="218.09" y="-1749.82" font-family="Helvetica,sans-Serif" font-size="9.00">yes</text>
</g>
<!-- redo -->
<g id="node5" class="node">
<title>redo</title>
<polygon fill="none" stroke="black" stroke-dasharray="5,2" points="143,-1623.55 93.48,-1598.35 143,-1573.15 192.52,-1598.35 143,-1623.55"/>
<text text-anchor="middle" x="143" y="-1600.1" font-family="Helvetica,sans-Serif" font-size="10.00">Material</text>
<text text-anchor="middle" x="143" y="-1588.85" font-family="Helvetica,sans-Serif" font-size="10.00"> change?</text>
</g>
<!-- update&#45;&gt;redo -->
<g id="edge18" class="edge">
<title>update&#45;&gt;redo</title>
<path fill="none" stroke="black" stroke-dasharray="5,2" d="M143,-1668.76C143,-1658.49 143,-1646.37 143,-1635.16"/>
<polygon fill="black" stroke="black" points="146.5,-1635.44 143,-1625.44 139.5,-1635.44 146.5,-1635.44"/>
<text text-anchor="middle" x="152.38" y="-1642.75" font-family="Helvetica,sans-Serif" font-size="9.00"> &#160;yes</text>
</g>
<!-- error -->
<g id="node22" class="node">
<title>error</title>
<polygon fill="none" stroke="black" stroke-dasharray="5,2" points="72,-1623.55 0,-1623.55 0,-1573.15 72,-1573.15 72,-1623.55"/>
<text text-anchor="middle" x="36" y="-1594.48" font-family="Helvetica,sans-Serif" font-size="10.00">Error</text>
</g>
<!-- update&#45;&gt;error -->
<g id="edge2" class="edge">
<title>update&#45;&gt;error</title>
<path fill="none" stroke="black" stroke-dasharray="5,2" d="M125.81,-1678.37C111.49,-1665.78 90.61,-1647.4 72.58,-1631.54"/>
<polygon fill="black" stroke="black" points="74.96,-1628.97 65.14,-1624.99 70.33,-1634.22 74.96,-1628.97"/>
<text text-anchor="middle" x="99.38" y="-1642.75" font-family="Helvetica,sans-Serif" font-size="9.00"> no</text>
</g>
<!-- redo&#45;&gt;stop -->
<g id="edge1" class="edge">
<title>redo&#45;&gt;stop</title>
<path fill="none" stroke="black" stroke-dasharray="5,2" d="M124.84,-1582.25C102.65,-1561.99 68,-1523.71 68,-1482.2 68,-1482.2 68,-1482.2 68,-532.7 68,-516.4 68,-498.34 68,-483.05"/>
<polygon fill="black" stroke="black" points="71.5,-483.48 68,-473.48 64.5,-483.48 71.5,-483.48"/>
<text text-anchor="middle" x="106.31" y="-1543.13" font-family="Helvetica,sans-Serif" font-size="9.00"> no</text>
</g>
<!-- redo&#45;&gt;triage_start -->
<g id="edge19" class="edge">
<title>redo&#45;&gt;triage_start</title>
<path fill="none" stroke="black" stroke-dasharray="5,2" d="M156.06,-1579.86C168.69,-1562.95 188.17,-1536.87 203.82,-1515.92"/>
<polygon fill="black" stroke="black" points="206.62,-1518.02 209.8,-1507.91 201.01,-1513.83 206.62,-1518.02"/>
<text text-anchor="middle" x="190.5" y="-1546.6" font-family="Helvetica,sans-Serif" font-size="9.00"> &#160;&#160;yes</text>
</g>
<!-- exploitation -->
<g id="node6" class="node">
<title>exploitation</title>
<polygon fill="none" stroke="black" points="229,-1419 173.72,-1393.8 229,-1368.6 284.28,-1393.8 229,-1419"/>
<text text-anchor="middle" x="229" y="-1389.93" font-family="Helvetica,sans-Serif" font-size="10.00">Exploitation?</text>
</g>
<!-- automatable -->
<g id="node8" class="node">
<title>automatable</title>
<polygon fill="none" stroke="black" points="229,-1322.85 170.85,-1297.65 229,-1272.45 287.15,-1297.65 229,-1322.85"/>
<text text-anchor="middle" x="229" y="-1293.78" font-family="Helvetica,sans-Serif" font-size="10.00">Automatable?</text>
</g>
<!-- exploitation&#45;&gt;automatable -->
<g id="edge8" class="edge">
<title>exploitation&#45;&gt;automatable</title>
<path fill="none" stroke="black" d="M229,-1368.06C229,-1357.79 229,-1345.67 229,-1334.46"/>
<polygon fill="black" stroke="black" points="232.5,-1334.74 229,-1324.74 225.5,-1334.74 232.5,-1334.74"/>
<text text-anchor="middle" x="240.62" y="-1342.05" font-family="Helvetica,sans-Serif" font-size="9.00"> none</text>
</g>
<!-- triage_enrich -->
<g id="node25" class="node">
<title>triage_enrich</title>
<path fill="none" stroke="black" d="M362,-1034.4C362,-1034.4 314,-1034.4 314,-1034.4 308,-1034.4 302,-1028.4 302,-1022.4 302,-1022.4 302,-996 302,-996 302,-990 308,-984 314,-984 314,-984 362,-984 362,-984 368,-984 374,-990 374,-996 374,-996 374,-1022.4 374,-1022.4 374,-1028.4 368,-1034.4 362,-1034.4"/>
<text text-anchor="middle" x="338" y="-1005.33" font-family="Helvetica,sans-Serif" font-size="10.00">Enrich</text>
</g>
<!-- exploitation&#45;&gt;triage_enrich -->
<g id="edge11" class="edge">
<title>exploitation&#45;&gt;triage_enrich</title>
<path fill="none" stroke="black" d="M249.05,-1377.56C264.44,-1364.72 284.88,-1344.93 296,-1322.85 325.71,-1263.83 293.34,-1236.31 321,-1176.3 325.36,-1166.84 331.93,-1167.89 336,-1158.3 340.84,-1146.88 337.7,-1142.89 339,-1130.55 342.2,-1100.16 344.44,-1092.67 346,-1062.15 346.22,-1057.82 346.41,-1056.71 346,-1052.4 345.8,-1050.23 345.53,-1048 345.23,-1045.76"/>
<polygon fill="black" stroke="black" points="348.72,-1045.44 343.68,-1036.13 341.81,-1046.56 348.72,-1045.44"/>
<text text-anchor="middle" x="333" y="-1197.83" font-family="Helvetica,sans-Serif" font-size="9.00">active</text>
</g>
<!-- exploitation&#45;&gt;triage_enrich -->
<g id="edge12" class="edge">
<title>exploitation&#45;&gt;triage_enrich</title>
<path fill="none" stroke="black" d="M251.04,-1378.17C261.8,-1370.55 274.63,-1360.72 285,-1350.6 328.79,-1307.87 332.46,-1286.58 345,-1226.7 360,-1155.07 349.67,-1135.32 351,-1062.15 351.08,-1057.82 351.65,-1056.69 351,-1052.4 350.65,-1050.09 350.2,-1047.73 349.68,-1045.37"/>
<polygon fill="black" stroke="black" points="353.13,-1044.71 347.21,-1035.92 346.36,-1046.48 353.13,-1044.71"/>
<text text-anchor="middle" x="362.12" y="-1197.83" font-family="Helvetica,sans-Serif" font-size="9.00"> PoC</text>
</g>
<!-- technical_impact -->
<g id="node7" class="node">
<title>technical_impact</title>
<polygon fill="none" stroke="black" points="200,-1226.7 149.15,-1201.5 200,-1176.3 250.85,-1201.5 200,-1226.7"/>
<text text-anchor="middle" x="200" y="-1203.25" font-family="Helvetica,sans-Serif" font-size="10.00">Technical</text>
<text text-anchor="middle" x="200" y="-1192" font-family="Helvetica,sans-Serif" font-size="10.00">Impact?</text>
</g>
<!-- other -->
<g id="node21" class="node">
<title>other</title>
<polygon fill="none" stroke="black" points="195,-1130.55 149.48,-1105.35 195,-1080.15 240.52,-1105.35 195,-1130.55"/>
<text text-anchor="middle" x="195" y="-1107.1" font-family="Helvetica,sans-Serif" font-size="10.00">Other</text>
<text text-anchor="middle" x="195" y="-1095.85" font-family="Helvetica,sans-Serif" font-size="10.00">factors?</text>
</g>
<!-- technical_impact&#45;&gt;other -->
<g id="edge14" class="edge">
<title>technical_impact&#45;&gt;other</title>
<path fill="none" stroke="black" d="M198.74,-1176.74C198.17,-1166.04 197.49,-1153.18 196.86,-1141.4"/>
<polygon fill="black" stroke="black" points="200.37,-1141.41 196.34,-1131.61 193.38,-1141.78 200.37,-1141.41"/>
<text text-anchor="middle" x="212" y="-1149.75" font-family="Helvetica,sans-Serif" font-size="9.00"> &#160;partial</text>
</g>
<!-- technical_impact&#45;&gt;triage_enrich -->
<g id="edge10" class="edge">
<title>technical_impact&#45;&gt;triage_enrich</title>
<path fill="none" stroke="black" d="M213.31,-1182.45C218.8,-1174.99 225.22,-1166.24 231,-1158.3 259.48,-1119.2 292,-1074.13 313.64,-1044.08"/>
<polygon fill="black" stroke="black" points="316.38,-1046.26 319.38,-1036.1 310.7,-1042.18 316.38,-1046.26"/>
<text text-anchor="middle" x="304.75" y="-1101.68" font-family="Helvetica,sans-Serif" font-size="9.00">complete</text>
</g>
<!-- automatable&#45;&gt;technical_impact -->
<g id="edge9" class="edge">
<title>automatable&#45;&gt;technical_impact</title>
<path fill="none" stroke="black" d="M222.42,-1275.29C218.71,-1263.25 214.01,-1247.98 209.87,-1234.53"/>
<polygon fill="black" stroke="black" points="213.29,-1233.75 207,-1225.23 206.6,-1235.81 213.29,-1233.75"/>
<text text-anchor="middle" x="221.38" y="-1245.9" font-family="Helvetica,sans-Serif" font-size="9.00"> no</text>
</g>
<!-- automatable&#45;&gt;triage_enrich -->
<g id="edge13" class="edge">
<title>automatable&#45;&gt;triage_enrich</title>
<path fill="none" stroke="black" d="M238.15,-1276.05C252.44,-1244.05 279.03,-1185.13 285,-1176.3 300.64,-1153.19 316.66,-1156.04 328,-1130.55 339.79,-1104.05 341.76,-1071.04 341.08,-1046.3"/>
<polygon fill="black" stroke="black" points="344.58,-1046.22 340.63,-1036.39 337.58,-1046.54 344.58,-1046.22"/>
<text text-anchor="middle" x="323.25" y="-1149.75" font-family="Helvetica,sans-Serif" font-size="9.00"> yes</text>
</g>
<!-- cwe -->
<g id="node9" class="node">
<title>cwe</title>
<polygon fill="none" stroke="black" points="350,-838.6 314,-813.4 350,-788.2 386,-813.4 350,-838.6"/>
<text text-anchor="middle" x="350" y="-809.53" font-family="Helvetica,sans-Serif" font-size="10.00">CWE?</text>
</g>
<!-- cvss -->
<g id="node10" class="node">
<title>cvss</title>
<polygon fill="none" stroke="black" points="353,-655.05 315.51,-629.85 353,-604.65 390.49,-629.85 353,-655.05"/>
<text text-anchor="middle" x="353" y="-625.98" font-family="Helvetica,sans-Serif" font-size="10.00">CVSS?</text>
</g>
<!-- cwe&#45;&gt;cvss -->
<g id="edge29" class="edge">
<title>cwe&#45;&gt;cvss</title>
<path fill="none" stroke="black" d="M346.33,-790.63C342.75,-766.51 338.29,-726.46 341.5,-692.05 342.37,-682.66 343.99,-672.57 345.73,-663.35"/>
<polygon fill="black" stroke="black" points="349.13,-664.22 347.67,-653.72 342.27,-662.83 349.13,-664.22"/>
<text text-anchor="middle" x="349.25" y="-713.58" font-family="Helvetica,sans-Serif" font-size="9.00"> yes</text>
</g>
<!-- do_cwe -->
<g id="node13" class="node">
<title>do_cwe</title>
<polygon fill="none" stroke="black" points="439,-742.45 367,-742.45 367,-692.05 439,-692.05 439,-742.45"/>
<text text-anchor="middle" x="403" y="-713.38" font-family="Helvetica,sans-Serif" font-size="10.00">Add CWE</text>
</g>
<!-- cwe&#45;&gt;do_cwe -->
<g id="edge30" class="edge">
<title>cwe&#45;&gt;do_cwe</title>
<path fill="none" stroke="black" d="M359.97,-794.69C366.63,-782.86 375.61,-766.91 383.64,-752.64"/>
<polygon fill="black" stroke="black" points="386.68,-754.38 388.53,-743.95 380.58,-750.95 386.68,-754.38"/>
<text text-anchor="middle" x="384.38" y="-761.65" font-family="Helvetica,sans-Serif" font-size="9.00"> no</text>
</g>
<!-- cpe -->
<g id="node11" class="node">
<title>cpe</title>
<polygon fill="none" stroke="black" points="353,-471.5 317,-446.3 353,-421.1 389,-446.3 353,-471.5"/>
<text text-anchor="middle" x="353" y="-442.42" font-family="Helvetica,sans-Serif" font-size="10.00">CPE?</text>
</g>
<!-- cvss&#45;&gt;cpe -->
<g id="edge32" class="edge">
<title>cvss&#45;&gt;cpe</title>
<path fill="none" stroke="black" d="M348.51,-607.22C345.88,-593.46 342.83,-575.21 341.5,-558.9 339.39,-533.03 338.74,-526.31 341.5,-500.5 342.24,-493.58 343.51,-486.23 344.93,-479.28"/>
<polygon fill="black" stroke="black" points="348.34,-480.1 347.1,-469.58 341.51,-478.58 348.34,-480.1"/>
<text text-anchor="middle" x="349.25" y="-530.02" font-family="Helvetica,sans-Serif" font-size="9.00"> yes</text>
</g>
<!-- do_cvss -->
<g id="node14" class="node">
<title>do_cvss</title>
<polygon fill="none" stroke="black" points="439,-558.9 367,-558.9 367,-508.5 439,-508.5 439,-558.9"/>
<text text-anchor="middle" x="403" y="-529.82" font-family="Helvetica,sans-Serif" font-size="10.00">Add CVSS</text>
</g>
<!-- cvss&#45;&gt;do_cvss -->
<g id="edge33" class="edge">
<title>cvss&#45;&gt;do_cvss</title>
<path fill="none" stroke="black" d="M362.64,-610.7C368.9,-598.92 377.25,-583.19 384.73,-569.1"/>
<polygon fill="black" stroke="black" points="387.68,-571.02 389.28,-560.54 381.49,-567.73 387.68,-571.02"/>
<text text-anchor="middle" x="385.38" y="-578.1" font-family="Helvetica,sans-Serif" font-size="9.00"> no</text>
</g>
<!-- references -->
<g id="node12" class="node">
<title>references</title>
<polygon fill="none" stroke="black" points="376,-287.95 316.49,-262.75 376,-237.55 435.51,-262.75 376,-287.95"/>
<text text-anchor="middle" x="376" y="-264.5" font-family="Helvetica,sans-Serif" font-size="10.00">Additional</text>
<text text-anchor="middle" x="376" y="-253.25" font-family="Helvetica,sans-Serif" font-size="10.00">references?</text>
</g>
<!-- cpe&#45;&gt;references -->
<g id="edge35" class="edge">
<title>cpe&#45;&gt;references</title>
<path fill="none" stroke="black" d="M346.8,-424.94C340.39,-400.72 332.5,-359.26 341.5,-324.95 344.49,-313.57 350.12,-302.07 355.99,-292.16"/>
<polygon fill="black" stroke="black" points="358.91,-294.1 361.27,-283.77 352.98,-290.37 358.91,-294.1"/>
<text text-anchor="middle" x="349.25" y="-346.47" font-family="Helvetica,sans-Serif" font-size="9.00"> yes</text>
</g>
<!-- do_cpe -->
<g id="node15" class="node">
<title>do_cpe</title>
<polygon fill="none" stroke="black" points="439,-375.35 367,-375.35 367,-324.95 439,-324.95 439,-375.35"/>
<text text-anchor="middle" x="403" y="-346.27" font-family="Helvetica,sans-Serif" font-size="10.00">Add CPE</text>
</g>
<!-- cpe&#45;&gt;do_cpe -->
<g id="edge36" class="edge">
<title>cpe&#45;&gt;do_cpe</title>
<path fill="none" stroke="black" d="M362.4,-427.59C368.69,-415.76 377.16,-399.81 384.74,-385.54"/>
<polygon fill="black" stroke="black" points="387.74,-387.34 389.34,-376.87 381.56,-384.06 387.74,-387.34"/>
<text text-anchor="middle" x="385.38" y="-394.55" font-family="Helvetica,sans-Serif" font-size="9.00"> no</text>
</g>
<!-- do_references -->
<g id="node16" class="node">
<title>do_references</title>
<polygon fill="none" stroke="black" points="386,-191.8 314,-191.8 314,-141.4 386,-141.4 386,-191.8"/>
<text text-anchor="middle" x="350" y="-168.35" font-family="Helvetica,sans-Serif" font-size="10.00">Add</text>
<text text-anchor="middle" x="350" y="-157.1" font-family="Helvetica,sans-Serif" font-size="10.00">references</text>
</g>
<!-- references&#45;&gt;do_references -->
<g id="edge38" class="edge">
<title>references&#45;&gt;do_references</title>
<path fill="none" stroke="black" d="M369.97,-239.91C366.94,-228.93 363.19,-215.35 359.76,-202.94"/>
<polygon fill="black" stroke="black" points="363.17,-202.13 357.13,-193.43 356.42,-204 363.17,-202.13"/>
<text text-anchor="middle" x="371.25" y="-211" font-family="Helvetica,sans-Serif" font-size="9.00"> yes</text>
</g>
<!-- enrich_stop -->
<g id="node29" class="node">
<title>enrich_stop</title>
<path fill="none" stroke="black" d="M374,-104.4C374,-104.4 326,-104.4 326,-104.4 320,-104.4 314,-98.4 314,-92.4 314,-92.4 314,-66 314,-66 314,-60 320,-54 326,-54 326,-54 374,-54 374,-54 380,-54 386,-60 386,-66 386,-66 386,-92.4 386,-92.4 386,-98.4 380,-104.4 374,-104.4"/>
<text text-anchor="middle" x="350" y="-80.95" font-family="Helvetica,sans-Serif" font-size="10.00">Stop</text>
<text text-anchor="middle" x="350" y="-69.7" font-family="Helvetica,sans-Serif" font-size="10.00">enrichment</text>
</g>
<!-- references&#45;&gt;enrich_stop -->
<g id="edge39" class="edge">
<title>references&#45;&gt;enrich_stop</title>
<path fill="none" stroke="black" d="M384.95,-241.27C394.29,-216.94 406.14,-175.37 395,-141.4 391.8,-131.66 386.4,-122.19 380.42,-113.73"/>
<polygon fill="black" stroke="black" points="383.27,-111.69 374.43,-105.84 377.69,-115.92 383.27,-111.69"/>
<text text-anchor="middle" x="405.38" y="-162.93" font-family="Helvetica,sans-Serif" font-size="9.00"> no</text>
</g>
<!-- do_cwe&#45;&gt;cvss -->
<g id="edge31" class="edge">
<title>do_cwe&#45;&gt;cvss</title>
<path fill="none" stroke="black" d="M388.81,-692.01C382.68,-681.54 375.48,-669.25 369.15,-658.44"/>
<polygon fill="black" stroke="black" points="372.25,-656.8 364.18,-649.94 366.21,-660.34 372.25,-656.8"/>
</g>
<!-- do_cvss&#45;&gt;cpe -->
<g id="edge34" class="edge">
<title>do_cvss&#45;&gt;cpe</title>
<path fill="none" stroke="black" d="M388.81,-508.46C382.64,-497.92 375.38,-485.52 369.02,-474.66"/>
<polygon fill="black" stroke="black" points="372.09,-472.98 364.02,-466.12 366.05,-476.52 372.09,-472.98"/>
</g>
<!-- do_cpe&#45;&gt;references -->
<g id="edge37" class="edge">
<title>do_cpe&#45;&gt;references</title>
<path fill="none" stroke="black" d="M395.34,-324.91C392.51,-315.97 389.27,-305.71 386.25,-296.17"/>
<polygon fill="black" stroke="black" points="389.66,-295.35 383.31,-286.87 382.99,-297.46 389.66,-295.35"/>
</g>
<!-- do_references&#45;&gt;enrich_stop -->
<g id="edge40" class="edge">
<title>do_references&#45;&gt;enrich_stop</title>
<path fill="none" stroke="black" d="M350,-141.36C350,-133.49 350,-124.59 350,-116.06"/>
<polygon fill="black" stroke="black" points="353.5,-116.31 350,-106.31 346.5,-116.31 353.5,-116.31"/>
</g>
<!-- github -->
<g id="node17" class="node">
<title>github</title>
<polygon fill="none" stroke="black" points="168,-655.05 96,-655.05 96,-604.65 168,-604.65 168,-655.05"/>
<text text-anchor="middle" x="132" y="-625.98" font-family="Helvetica,sans-Serif" font-size="10.00">GitHub</text>
</g>
<!-- publish_stop -->
<g id="node23" class="node">
<title>publish_stop</title>
<path fill="none" stroke="black" d="M156,-558.9C156,-558.9 108,-558.9 108,-558.9 102,-558.9 96,-552.9 96,-546.9 96,-546.9 96,-520.5 96,-520.5 96,-514.5 102,-508.5 108,-508.5 108,-508.5 156,-508.5 156,-508.5 162,-508.5 168,-514.5 168,-520.5 168,-520.5 168,-546.9 168,-546.9 168,-552.9 162,-558.9 156,-558.9"/>
<text text-anchor="middle" x="132" y="-535.45" font-family="Helvetica,sans-Serif" font-size="10.00">Stop</text>
<text text-anchor="middle" x="132" y="-524.2" font-family="Helvetica,sans-Serif" font-size="10.00">publishing</text>
</g>
<!-- github&#45;&gt;publish_stop -->
<g id="edge25" class="edge">
<title>github&#45;&gt;publish_stop</title>
<path fill="none" stroke="black" d="M132,-604.6C132,-594.25 132,-581.96 132,-570.59"/>
<polygon fill="black" stroke="black" points="135.5,-570.7 132,-560.7 128.5,-570.7 135.5,-570.7"/>
</g>
<!-- adp -->
<g id="node18" class="node">
<title>adp</title>
<polygon fill="none" stroke="black" points="258,-655.05 186,-655.05 186,-604.65 258,-604.65 258,-655.05"/>
<text text-anchor="middle" x="222" y="-625.98" font-family="Helvetica,sans-Serif" font-size="10.00">ADP</text>
</g>
<!-- adp&#45;&gt;publish_stop -->
<g id="edge26" class="edge">
<title>adp&#45;&gt;publish_stop</title>
<path fill="none" stroke="black" d="M198.82,-604.6C187.99,-593.27 174.93,-579.61 163.24,-567.38"/>
<polygon fill="black" stroke="black" points="165.9,-565.1 156.46,-560.29 160.84,-569.93 165.9,-565.1"/>
</g>
<!-- publish -->
<g id="node19" class="node">
<title>publish</title>
<polygon fill="none" stroke="black" points="244,-742.45 172,-742.45 172,-692.05 244,-692.05 244,-742.45"/>
<text text-anchor="middle" x="208" y="-713.38" font-family="Helvetica,sans-Serif" font-size="10.00">Publish</text>
</g>
<!-- publish&#45;&gt;github -->
<g id="edge21" class="edge">
<title>publish&#45;&gt;github</title>
<path fill="none" stroke="black" d="M186.42,-692.01C178.63,-683.25 169.69,-673.2 161.34,-663.82"/>
<polygon fill="black" stroke="black" points="164.16,-661.73 154.9,-656.58 158.93,-666.38 164.16,-661.73"/>
</g>
<!-- publish&#45;&gt;adp -->
<g id="edge22" class="edge">
<title>publish&#45;&gt;adp</title>
<path fill="none" stroke="black" d="M211.97,-692.01C213.26,-684.14 214.72,-675.24 216.12,-666.71"/>
<polygon fill="black" stroke="black" points="219.56,-667.38 217.72,-656.94 212.65,-666.25 219.56,-667.38"/>
</g>
<!-- cna -->
<g id="node20" class="node">
<title>cna</title>
<polygon fill="none" stroke="black" points="249.75,-838.6 166.25,-838.6 166.25,-788.2 249.75,-788.2 249.75,-838.6"/>
<text text-anchor="middle" x="208" y="-815.15" font-family="Helvetica,sans-Serif" font-size="10.00">Get latest CNA</text>
<text text-anchor="middle" x="208" y="-803.9" font-family="Helvetica,sans-Serif" font-size="10.00">conatiner</text>
</g>
<!-- cna&#45;&gt;publish -->
<g id="edge20" class="edge">
<title>cna&#45;&gt;publish</title>
<path fill="none" stroke="black" d="M208,-788.15C208,-777.8 208,-765.51 208,-754.14"/>
<polygon fill="black" stroke="black" points="211.5,-754.25 208,-744.25 204.5,-754.25 211.5,-754.25"/>
</g>
<!-- other&#45;&gt;triage_enrich -->
<g id="edge16" class="edge">
<title>other&#45;&gt;triage_enrich</title>
<path fill="none" stroke="black" d="M210.37,-1088.57C221.59,-1077.58 237.54,-1063.04 253.25,-1052.4 265.17,-1044.33 278.86,-1036.84 291.7,-1030.48"/>
<polygon fill="black" stroke="black" points="292.92,-1033.78 300.41,-1026.29 289.88,-1027.47 292.92,-1033.78"/>
<text text-anchor="middle" x="262.38" y="-1053.6" font-family="Helvetica,sans-Serif" font-size="9.00"> &#160;yes</text>
</g>
<!-- triage_skip -->
<g id="node26" class="node">
<title>triage_skip</title>
<path fill="none" stroke="black" d="M232,-1034.4C232,-1034.4 184,-1034.4 184,-1034.4 178,-1034.4 172,-1028.4 172,-1022.4 172,-1022.4 172,-996 172,-996 172,-990 178,-984 184,-984 184,-984 232,-984 232,-984 238,-984 244,-990 244,-996 244,-996 244,-1022.4 244,-1022.4 244,-1028.4 238,-1034.4 232,-1034.4"/>
<text text-anchor="middle" x="208" y="-1010.95" font-family="Helvetica,sans-Serif" font-size="10.00">Do not</text>
<text text-anchor="middle" x="208" y="-999.7" font-family="Helvetica,sans-Serif" font-size="10.00">enrich</text>
</g>
<!-- other&#45;&gt;triage_skip -->
<g id="edge15" class="edge">
<title>other&#45;&gt;triage_skip</title>
<path fill="none" stroke="black" d="M198.15,-1081.56C199.63,-1070.84 201.43,-1057.8 203.08,-1045.82"/>
<polygon fill="black" stroke="black" points="206.5,-1046.64 204.4,-1036.26 199.57,-1045.69 206.5,-1046.64"/>
<text text-anchor="middle" x="208.5" y="-1053.6" font-family="Helvetica,sans-Serif" font-size="9.00"> &#160;no</text>
</g>
<!-- error&#45;&gt;stop -->
<g id="edge3" class="edge">
<title>error&#45;&gt;stop</title>
<path fill="none" stroke="black" stroke-dasharray="5,2" d="M33.97,-1572.66C32.23,-1549.36 30,-1513.43 30,-1482.2 30,-1482.2 30,-1482.2 30,-532.7 30,-514.9 36.98,-496.68 44.95,-481.66"/>
<polygon fill="black" stroke="black" points="47.9,-483.55 49.81,-473.13 41.82,-480.09 47.9,-483.55"/>
</g>
<!-- publish_stop&#45;&gt;stop -->
<g id="edge4" class="edge">
<title>publish_stop&#45;&gt;stop</title>
<path fill="none" stroke="black" d="M113.83,-508.46C107.4,-499.88 100.05,-490.06 93.14,-480.85"/>
<polygon fill="black" stroke="black" points="96.14,-479.02 87.34,-473.11 90.54,-483.21 96.14,-479.02"/>
</g>
<!-- triage_start&#45;&gt;exploitation -->
<g id="edge7" class="edge">
<title>triage_start&#45;&gt;exploitation</title>
<path fill="none" stroke="black" d="M229,-1455.96C229,-1448.09 229,-1439.19 229,-1430.66"/>
<polygon fill="black" stroke="black" points="232.5,-1430.91 229,-1420.91 225.5,-1430.91 232.5,-1430.91"/>
</g>
<!-- enrich_start -->
<g id="node28" class="node">
<title>enrich_start</title>
<path fill="none" stroke="black" d="M374,-926C374,-926 326,-926 326,-926 320,-926 314,-920 314,-914 314,-914 314,-887.6 314,-887.6 314,-881.6 320,-875.6 326,-875.6 326,-875.6 374,-875.6 374,-875.6 380,-875.6 386,-881.6 386,-887.6 386,-887.6 386,-914 386,-914 386,-920 380,-926 374,-926"/>
<text text-anchor="middle" x="350" y="-902.55" font-family="Helvetica,sans-Serif" font-size="10.00">Start</text>
<text text-anchor="middle" x="350" y="-891.3" font-family="Helvetica,sans-Serif" font-size="10.00">enrichment</text>
</g>
<!-- triage_enrich&#45;&gt;enrich_start -->
<g id="edge27" class="edge">
<title>triage_enrich&#45;&gt;enrich_start</title>
<path fill="none" stroke="black" d="M340.78,-983.52C342.33,-969.82 344.28,-952.55 345.98,-937.41"/>
<polygon fill="black" stroke="black" points="349.42,-938.18 347.06,-927.85 342.46,-937.39 349.42,-938.18"/>
</g>
<!-- publish_start -->
<g id="node27" class="node">
<title>publish_start</title>
<path fill="none" stroke="black" d="M232,-926C232,-926 184,-926 184,-926 178,-926 172,-920 172,-914 172,-914 172,-887.6 172,-887.6 172,-881.6 178,-875.6 184,-875.6 184,-875.6 232,-875.6 232,-875.6 238,-875.6 244,-881.6 244,-887.6 244,-887.6 244,-914 244,-914 244,-920 238,-926 232,-926"/>
<text text-anchor="middle" x="208" y="-902.55" font-family="Helvetica,sans-Serif" font-size="10.00">Start</text>
<text text-anchor="middle" x="208" y="-891.3" font-family="Helvetica,sans-Serif" font-size="10.00">publishing</text>
</g>
<!-- triage_skip&#45;&gt;publish_start -->
<g id="edge23" class="edge">
<title>triage_skip&#45;&gt;publish_start</title>
<path fill="none" stroke="black" d="M208,-983.52C208,-969.96 208,-952.88 208,-937.85"/>
<polygon fill="black" stroke="black" points="211.5,-937.86 208,-927.86 204.5,-937.86 211.5,-937.86"/>
</g>
<!-- publish_start&#45;&gt;cna -->
<g id="edge24" class="edge">
<title>publish_start&#45;&gt;cna</title>
<path fill="none" stroke="black" d="M208,-875.56C208,-867.69 208,-858.79 208,-850.26"/>
<polygon fill="black" stroke="black" points="211.5,-850.51 208,-840.51 204.5,-850.51 211.5,-850.51"/>
</g>
<!-- enrich_start&#45;&gt;cwe -->
<g id="edge28" class="edge">
<title>enrich_start&#45;&gt;cwe</title>
<path fill="none" stroke="black" d="M350,-875.56C350,-867.69 350,-858.79 350,-850.26"/>
<polygon fill="black" stroke="black" points="353.5,-850.51 350,-840.51 346.5,-850.51 353.5,-850.51"/>
</g>
<!-- enrich_stop&#45;&gt;publish_start -->
<g id="edge41" class="edge">
<title>enrich_stop&#45;&gt;publish_start</title>
<path fill="none" stroke="black" d="M318.37,-104.75C302.25,-120.2 286,-141.7 286,-165.6 286,-814.4 286,-814.4 286,-814.4 286,-837.52 270.22,-857.12 252.85,-871.69"/>
<polygon fill="black" stroke="black" points="251.16,-868.57 245.45,-877.5 255.48,-874.08 251.16,-868.57"/>
</g>
</g>
</svg>
