<?xml version="1.0" encoding="UTF-8" standalone="no"?>
<!DOCTYPE svg PUBLIC "-//W3C//DTD SVG 1.1//EN"
 "http://www.w3.org/Graphics/SVG/1.1/DTD/svg11.dtd">
<!-- Generated by graphviz version 9.0.0 (20230911.1827)
 -->
<!-- Title: vulnrichment Pages: 1 -->
<svg width="463pt" height="1978pt"
 viewBox="0.00 0.00 463.00 1977.50" xmlns="http://www.w3.org/2000/svg" xmlns:xlink="http://www.w3.org/1999/xlink">
<g id="graph0" class="graph" transform="scale(1 1) rotate(0) translate(4 1973.5)">
<title>vulnrichment</title>
<polygon fill="white" stroke="none" points="-4,4 -4,-1973.5 459,-1973.5 459,4 -4,4"/>
<text text-anchor="middle" x="227.5" y="-35.7" font-family="Helvetica,sans-Serif" font-size="14.00">CISA Vulnrichment Process</text>
<text text-anchor="middle" x="227.5" y="-20.7" font-family="Helvetica,sans-Serif" font-size="14.00">https://github.com/cisagov/vulnrichment</text>
<text text-anchor="middle" x="227.5" y="-5.7" font-family="Helvetica,sans-Serif" font-size="14.00">2024&#45;07&#45;09</text>
<g id="clust1" class="cluster">
<title>cluster_new</title>
</g>
<g id="clust2" class="cluster">
<title>cluster_triage</title>
<polygon fill="none" stroke="black" points="141,-991 141,-1552.4 395,-1552.4 395,-991 141,-991"/>
<text text-anchor="end" x="287.12" y="-1535.1" font-family="Helvetica,sans-Serif" font-size="14.00">Triage</text>
</g>
<g id="clust3" class="cluster">
<title>cluster_update</title>
<polygon fill="none" stroke="black" stroke-dasharray="5,2" points="85,-1580.15 85,-1765.7 201,-1765.7 201,-1580.15 85,-1580.15"/>
<text text-anchor="middle" x="143" y="-1748.4" font-family="Helvetica,sans-Serif" font-size="14.00">Update</text>
</g>
<g id="clust4" class="cluster">
<title>cluster_publish</title>
<polygon fill="none" stroke="black" points="88,-515.5 88,-972 266,-972 266,-515.5 88,-515.5"/>
<text text-anchor="middle" x="177" y="-954.7" font-family="Helvetica,sans-Serif" font-size="14.00">Publish</text>
</g>
<g id="clust5" class="cluster">
<title>cluster_enrich</title>
<polygon fill="none" stroke="black" points="306,-61 306,-972 447,-972 447,-61 306,-61"/>
<text text-anchor="middle" x="376.5" y="-954.7" font-family="Helvetica,sans-Serif" font-size="14.00">Enrich</text>
</g>
<!-- start -->
<g id="node1" class="node">
<title>start</title>
<path fill="none" stroke="black" d="M223,-1930.5C223,-1930.5 175,-1930.5 175,-1930.5 169,-1930.5 163,-1924.5 163,-1918.5 163,-1918.5 163,-1892.1 163,-1892.1 163,-1886.1 169,-1880.1 175,-1880.1 175,-1880.1 223,-1880.1 223,-1880.1 229,-1880.1 235,-1886.1 235,-1892.1 235,-1892.1 235,-1918.5 235,-1918.5 235,-1924.5 229,-1930.5 223,-1930.5"/>
<text text-anchor="middle" x="199" y="-1901.43" font-family="Helvetica,sans-Serif" font-size="10.00">Start</text>
</g>
<!-- new -->
<g id="node3" class="node">
<title>new</title>
<polygon fill="none" stroke="black" points="199,-1843.1 148.89,-1817.9 199,-1792.7 249.11,-1817.9 199,-1843.1"/>
<text text-anchor="middle" x="199" y="-1814.03" font-family="Helvetica,sans-Serif" font-size="10.00">New CVE?</text>
</g>
<!-- start&#45;&gt;new -->
<g id="edge5" class="edge">
<title>start&#45;&gt;new</title>
<path fill="none" stroke="black" d="M199,-1880.06C199,-1872.19 199,-1863.29 199,-1854.76"/>
<polygon fill="black" stroke="black" points="202.5,-1855.01 199,-1845.01 195.5,-1855.01 202.5,-1855.01"/>
</g>
<!-- stop -->
<g id="node2" class="node">
<title>stop</title>
<path fill="none" stroke="black" d="M92,-486.5C92,-486.5 44,-486.5 44,-486.5 38,-486.5 32,-480.5 32,-474.5 32,-474.5 32,-448.1 32,-448.1 32,-442.1 38,-436.1 44,-436.1 44,-436.1 92,-436.1 92,-436.1 98,-436.1 104,-442.1 104,-448.1 104,-448.1 104,-474.5 104,-474.5 104,-480.5 98,-486.5 92,-486.5"/>
<text text-anchor="middle" x="68" y="-457.42" font-family="Helvetica,sans-Serif" font-size="10.00">Stop</text>
</g>
<!-- update -->
<g id="node4" class="node">
<title>update</title>
<polygon fill="none" stroke="black" stroke-dasharray="5,2" points="143,-1734.7 96.15,-1709.5 143,-1684.3 189.85,-1709.5 143,-1734.7"/>
<text text-anchor="middle" x="143" y="-1711.25" font-family="Helvetica,sans-Serif" font-size="10.00">Updated</text>
<text text-anchor="middle" x="143" y="-1700" font-family="Helvetica,sans-Serif" font-size="10.00"> CVE?</text>
</g>
<!-- new&#45;&gt;update -->
<g id="edge17" class="edge">
<title>new&#45;&gt;update</title>
<path fill="none" stroke="black" stroke-dasharray="5,2" d="M188.73,-1797.38C180.23,-1781.24 168.03,-1758.05 158.37,-1739.7"/>
<polygon fill="black" stroke="black" points="161.48,-1738.09 153.72,-1730.87 155.28,-1741.35 161.48,-1738.09"/>
<text text-anchor="middle" x="188.11" y="-1773.72" font-family="Helvetica,sans-Serif" font-size="9.00">no</text>
</g>
<!-- triage_start -->
<g id="node24" class="node">
<title>triage_start</title>
<path fill="none" stroke="black" d="M253,-1521.4C253,-1521.4 205,-1521.4 205,-1521.4 199,-1521.4 193,-1515.4 193,-1509.4 193,-1509.4 193,-1483 193,-1483 193,-1477 199,-1471 205,-1471 205,-1471 253,-1471 253,-1471 259,-1471 265,-1477 265,-1483 265,-1483 265,-1509.4 265,-1509.4 265,-1515.4 259,-1521.4 253,-1521.4"/>
<text text-anchor="middle" x="229" y="-1497.95" font-family="Helvetica,sans-Serif" font-size="10.00">Start</text>
<text text-anchor="middle" x="229" y="-1486.7" font-family="Helvetica,sans-Serif" font-size="10.00">triage</text>
</g>
<!-- new&#45;&gt;triage_start -->
<g id="edge6" class="edge">
<title>new&#45;&gt;triage_start</title>
<path fill="none" stroke="black" d="M201.85,-1793.72C202.9,-1784.95 204.05,-1774.87 205,-1765.7 213.59,-1682.52 221.88,-1584.66 226.1,-1533.12"/>
<polygon fill="black" stroke="black" points="229.59,-1533.42 226.92,-1523.16 222.62,-1532.85 229.59,-1533.42"/>
<text text-anchor="middle" x="218.09" y="-1764.82" font-family="Helvetica,sans-Serif" font-size="9.00">yes</text>
</g>
<!-- redo -->
<g id="node5" class="node">
<title>redo</title>
<polygon fill="none" stroke="black" stroke-dasharray="5,2" points="143,-1638.55 93.48,-1613.35 143,-1588.15 192.52,-1613.35 143,-1638.55"/>
<text text-anchor="middle" x="143" y="-1615.1" font-family="Helvetica,sans-Serif" font-size="10.00">Material</text>
<text text-anchor="middle" x="143" y="-1603.85" font-family="Helvetica,sans-Serif" font-size="10.00"> change?</text>
</g>
<!-- update&#45;&gt;redo -->
<g id="edge18" class="edge">
<title>update&#45;&gt;redo</title>
<path fill="none" stroke="black" stroke-dasharray="5,2" d="M143,-1683.76C143,-1673.49 143,-1661.37 143,-1650.16"/>
<polygon fill="black" stroke="black" points="146.5,-1650.44 143,-1640.44 139.5,-1650.44 146.5,-1650.44"/>
<text text-anchor="middle" x="152.38" y="-1657.75" font-family="Helvetica,sans-Serif" font-size="9.00"> &#160;yes</text>
</g>
<!-- error -->
<g id="node22" class="node">
<title>error</title>
<polygon fill="none" stroke="black" stroke-dasharray="5,2" points="72,-1638.55 0,-1638.55 0,-1588.15 72,-1588.15 72,-1638.55"/>
<text text-anchor="middle" x="36" y="-1609.48" font-family="Helvetica,sans-Serif" font-size="10.00">Error</text>
</g>
<!-- update&#45;&gt;error -->
<g id="edge2" class="edge">
<title>update&#45;&gt;error</title>
<path fill="none" stroke="black" stroke-dasharray="5,2" d="M125.81,-1693.37C111.49,-1680.78 90.61,-1662.4 72.58,-1646.54"/>
<polygon fill="black" stroke="black" points="74.96,-1643.97 65.14,-1639.99 70.33,-1649.22 74.96,-1643.97"/>
<text text-anchor="middle" x="99.38" y="-1657.75" font-family="Helvetica,sans-Serif" font-size="9.00"> no</text>
</g>
<!-- redo&#45;&gt;stop -->
<g id="edge1" class="edge">
<title>redo&#45;&gt;stop</title>
<path fill="none" stroke="black" stroke-dasharray="5,2" d="M124.84,-1597.25C102.65,-1576.99 68,-1538.71 68,-1497.2 68,-1497.2 68,-1497.2 68,-547.7 68,-531.4 68,-513.34 68,-498.05"/>
<polygon fill="black" stroke="black" points="71.5,-498.48 68,-488.48 64.5,-498.48 71.5,-498.48"/>
<text text-anchor="middle" x="106.31" y="-1558.13" font-family="Helvetica,sans-Serif" font-size="9.00"> no</text>
</g>
<!-- redo&#45;&gt;triage_start -->
<g id="edge19" class="edge">
<title>redo&#45;&gt;triage_start</title>
<path fill="none" stroke="black" stroke-dasharray="5,2" d="M156.06,-1594.86C168.69,-1577.95 188.17,-1551.87 203.82,-1530.92"/>
<polygon fill="black" stroke="black" points="206.62,-1533.02 209.8,-1522.91 201.01,-1528.83 206.62,-1533.02"/>
<text text-anchor="middle" x="190.5" y="-1561.6" font-family="Helvetica,sans-Serif" font-size="9.00"> &#160;&#160;yes</text>
</g>
<!-- exploitation -->
<g id="node6" class="node">
<title>exploitation</title>
<polygon fill="none" stroke="black" points="229,-1434 173.72,-1408.8 229,-1383.6 284.28,-1408.8 229,-1434"/>
<text text-anchor="middle" x="229" y="-1404.93" font-family="Helvetica,sans-Serif" font-size="10.00">Exploitation?</text>
</g>
<!-- automatable -->
<g id="node8" class="node">
<title>automatable</title>
<polygon fill="none" stroke="black" points="229,-1337.85 170.85,-1312.65 229,-1287.45 287.15,-1312.65 229,-1337.85"/>
<text text-anchor="middle" x="229" y="-1308.78" font-family="Helvetica,sans-Serif" font-size="10.00">Automatable?</text>
</g>
<!-- exploitation&#45;&gt;automatable -->
<g id="edge8" class="edge">
<title>exploitation&#45;&gt;automatable</title>
<path fill="none" stroke="black" d="M229,-1383.06C229,-1372.79 229,-1360.67 229,-1349.46"/>
<polygon fill="black" stroke="black" points="232.5,-1349.74 229,-1339.74 225.5,-1349.74 232.5,-1349.74"/>
<text text-anchor="middle" x="240.62" y="-1357.05" font-family="Helvetica,sans-Serif" font-size="9.00"> none</text>
</g>
<!-- triage_enrich -->
<g id="node25" class="node">
<title>triage_enrich</title>
<path fill="none" stroke="black" d="M362,-1049.4C362,-1049.4 314,-1049.4 314,-1049.4 308,-1049.4 302,-1043.4 302,-1037.4 302,-1037.4 302,-1011 302,-1011 302,-1005 308,-999 314,-999 314,-999 362,-999 362,-999 368,-999 374,-1005 374,-1011 374,-1011 374,-1037.4 374,-1037.4 374,-1043.4 368,-1049.4 362,-1049.4"/>
<text text-anchor="middle" x="338" y="-1020.33" font-family="Helvetica,sans-Serif" font-size="10.00">Enrich</text>
</g>
<!-- exploitation&#45;&gt;triage_enrich -->
<g id="edge11" class="edge">
<title>exploitation&#45;&gt;triage_enrich</title>
<path fill="none" stroke="black" d="M249.05,-1392.56C264.44,-1379.72 284.88,-1359.93 296,-1337.85 325.71,-1278.83 293.34,-1251.31 321,-1191.3 325.36,-1181.84 331.93,-1182.89 336,-1173.3 340.84,-1161.88 337.7,-1157.89 339,-1145.55 342.2,-1115.16 344.44,-1107.67 346,-1077.15 346.22,-1072.82 346.41,-1071.71 346,-1067.4 345.8,-1065.23 345.53,-1063 345.23,-1060.76"/>
<polygon fill="black" stroke="black" points="348.72,-1060.44 343.68,-1051.13 341.81,-1061.56 348.72,-1060.44"/>
<text text-anchor="middle" x="333" y="-1212.83" font-family="Helvetica,sans-Serif" font-size="9.00">active</text>
</g>
<!-- exploitation&#45;&gt;triage_enrich -->
<g id="edge12" class="edge">
<title>exploitation&#45;&gt;triage_enrich</title>
<path fill="none" stroke="black" d="M251.04,-1393.17C261.8,-1385.55 274.63,-1375.72 285,-1365.6 328.79,-1322.87 332.46,-1301.58 345,-1241.7 360,-1170.07 349.67,-1150.32 351,-1077.15 351.08,-1072.82 351.65,-1071.69 351,-1067.4 350.65,-1065.09 350.2,-1062.73 349.68,-1060.37"/>
<polygon fill="black" stroke="black" points="353.13,-1059.71 347.21,-1050.92 346.36,-1061.48 353.13,-1059.71"/>
<text text-anchor="middle" x="362.12" y="-1212.83" font-family="Helvetica,sans-Serif" font-size="9.00"> PoC</text>
</g>
<!-- technical_impact -->
<g id="node7" class="node">
<title>technical_impact</title>
<polygon fill="none" stroke="black" points="200,-1241.7 149.15,-1216.5 200,-1191.3 250.85,-1216.5 200,-1241.7"/>
<text text-anchor="middle" x="200" y="-1218.25" font-family="Helvetica,sans-Serif" font-size="10.00">Technical</text>
<text text-anchor="middle" x="200" y="-1207" font-family="Helvetica,sans-Serif" font-size="10.00">Impact?</text>
</g>
<!-- other -->
<g id="node21" class="node">
<title>other</title>
<polygon fill="none" stroke="black" points="195,-1145.55 149.48,-1120.35 195,-1095.15 240.52,-1120.35 195,-1145.55"/>
<text text-anchor="middle" x="195" y="-1122.1" font-family="Helvetica,sans-Serif" font-size="10.00">Other</text>
<text text-anchor="middle" x="195" y="-1110.85" font-family="Helvetica,sans-Serif" font-size="10.00">factors?</text>
</g>
<!-- technical_impact&#45;&gt;other -->
<g id="edge14" class="edge">
<title>technical_impact&#45;&gt;other</title>
<path fill="none" stroke="black" d="M198.74,-1191.74C198.17,-1181.04 197.49,-1168.18 196.86,-1156.4"/>
<polygon fill="black" stroke="black" points="200.37,-1156.41 196.34,-1146.61 193.38,-1156.78 200.37,-1156.41"/>
<text text-anchor="middle" x="212" y="-1164.75" font-family="Helvetica,sans-Serif" font-size="9.00"> &#160;partial</text>
</g>
<!-- technical_impact&#45;&gt;triage_enrich -->
<g id="edge10" class="edge">
<title>technical_impact&#45;&gt;triage_enrich</title>
<path fill="none" stroke="black" d="M213.31,-1197.45C218.8,-1189.99 225.22,-1181.24 231,-1173.3 259.48,-1134.2 292,-1089.13 313.64,-1059.08"/>
<polygon fill="black" stroke="black" points="316.38,-1061.26 319.38,-1051.1 310.7,-1057.18 316.38,-1061.26"/>
<text text-anchor="middle" x="304.75" y="-1116.68" font-family="Helvetica,sans-Serif" font-size="9.00">complete</text>
</g>
<!-- automatable&#45;&gt;technical_impact -->
<g id="edge9" class="edge">
<title>automatable&#45;&gt;technical_impact</title>
<path fill="none" stroke="black" d="M222.42,-1290.29C218.71,-1278.25 214.01,-1262.98 209.87,-1249.53"/>
<polygon fill="black" stroke="black" points="213.29,-1248.75 207,-1240.23 206.6,-1250.81 213.29,-1248.75"/>
<text text-anchor="middle" x="221.38" y="-1260.9" font-family="Helvetica,sans-Serif" font-size="9.00"> no</text>
</g>
<!-- automatable&#45;&gt;triage_enrich -->
<g id="edge13" class="edge">
<title>automatable&#45;&gt;triage_enrich</title>
<path fill="none" stroke="black" d="M238.15,-1291.05C252.44,-1259.05 279.03,-1200.13 285,-1191.3 300.64,-1168.19 316.66,-1171.04 328,-1145.55 339.79,-1119.05 341.76,-1086.04 341.08,-1061.3"/>
<polygon fill="black" stroke="black" points="344.58,-1061.22 340.63,-1051.39 337.58,-1061.54 344.58,-1061.22"/>
<text text-anchor="middle" x="323.25" y="-1164.75" font-family="Helvetica,sans-Serif" font-size="9.00"> yes</text>
</g>
<!-- cwe -->
<g id="node9" class="node">
<title>cwe</title>
<polygon fill="none" stroke="black" points="350,-853.6 314,-828.4 350,-803.2 386,-828.4 350,-853.6"/>
<text text-anchor="middle" x="350" y="-824.53" font-family="Helvetica,sans-Serif" font-size="10.00">CWE?</text>
</g>
<!-- cvss -->
<g id="node10" class="node">
<title>cvss</title>
<polygon fill="none" stroke="black" points="353,-670.05 315.51,-644.85 353,-619.65 390.49,-644.85 353,-670.05"/>
<text text-anchor="middle" x="353" y="-640.98" font-family="Helvetica,sans-Serif" font-size="10.00">CVSS?</text>
</g>
<!-- cwe&#45;&gt;cvss -->
<g id="edge29" class="edge">
<title>cwe&#45;&gt;cvss</title>
<path fill="none" stroke="black" d="M346.33,-805.63C342.75,-781.51 338.29,-741.46 341.5,-707.05 342.37,-697.66 343.99,-687.57 345.73,-678.35"/>
<polygon fill="black" stroke="black" points="349.13,-679.22 347.67,-668.72 342.27,-677.83 349.13,-679.22"/>
<text text-anchor="middle" x="349.25" y="-728.58" font-family="Helvetica,sans-Serif" font-size="9.00"> yes</text>
</g>
<!-- do_cwe -->
<g id="node13" class="node">
<title>do_cwe</title>
<polygon fill="none" stroke="black" points="439,-757.45 367,-757.45 367,-707.05 439,-707.05 439,-757.45"/>
<text text-anchor="middle" x="403" y="-728.38" font-family="Helvetica,sans-Serif" font-size="10.00">Add CWE</text>
</g>
<!-- cwe&#45;&gt;do_cwe -->
<g id="edge30" class="edge">
<title>cwe&#45;&gt;do_cwe</title>
<path fill="none" stroke="black" d="M359.97,-809.69C366.63,-797.86 375.61,-781.91 383.64,-767.64"/>
<polygon fill="black" stroke="black" points="386.68,-769.38 388.53,-758.95 380.58,-765.95 386.68,-769.38"/>
<text text-anchor="middle" x="384.38" y="-776.65" font-family="Helvetica,sans-Serif" font-size="9.00"> no</text>
</g>
<!-- cpe -->
<g id="node11" class="node">
<title>cpe</title>
<polygon fill="none" stroke="black" points="353,-486.5 317,-461.3 353,-436.1 389,-461.3 353,-486.5"/>
<text text-anchor="middle" x="353" y="-457.42" font-family="Helvetica,sans-Serif" font-size="10.00">CPE?</text>
</g>
<!-- cvss&#45;&gt;cpe -->
<g id="edge32" class="edge">
<title>cvss&#45;&gt;cpe</title>
<path fill="none" stroke="black" d="M348.51,-622.22C345.88,-608.46 342.83,-590.21 341.5,-573.9 339.39,-548.03 338.74,-541.31 341.5,-515.5 342.24,-508.58 343.51,-501.23 344.93,-494.28"/>
<polygon fill="black" stroke="black" points="348.34,-495.1 347.1,-484.58 341.51,-493.58 348.34,-495.1"/>
<text text-anchor="middle" x="349.25" y="-545.02" font-family="Helvetica,sans-Serif" font-size="9.00"> yes</text>
</g>
<!-- do_cvss -->
<g id="node14" class="node">
<title>do_cvss</title>
<polygon fill="none" stroke="black" points="439,-573.9 367,-573.9 367,-523.5 439,-523.5 439,-573.9"/>
<text text-anchor="middle" x="403" y="-544.82" font-family="Helvetica,sans-Serif" font-size="10.00">Add CVSS</text>
</g>
<!-- cvss&#45;&gt;do_cvss -->
<g id="edge33" class="edge">
<title>cvss&#45;&gt;do_cvss</title>
<path fill="none" stroke="black" d="M362.64,-625.7C368.9,-613.92 377.25,-598.19 384.73,-584.1"/>
<polygon fill="black" stroke="black" points="387.68,-586.02 389.28,-575.54 381.49,-582.73 387.68,-586.02"/>
<text text-anchor="middle" x="385.38" y="-593.1" font-family="Helvetica,sans-Serif" font-size="9.00"> no</text>
</g>
<!-- references -->
<g id="node12" class="node">
<title>references</title>
<polygon fill="none" stroke="black" points="376,-302.95 316.49,-277.75 376,-252.55 435.51,-277.75 376,-302.95"/>
<text text-anchor="middle" x="376" y="-279.5" font-family="Helvetica,sans-Serif" font-size="10.00">Additional</text>
<text text-anchor="middle" x="376" y="-268.25" font-family="Helvetica,sans-Serif" font-size="10.00">references?</text>
</g>
<!-- cpe&#45;&gt;references -->
<g id="edge35" class="edge">
<title>cpe&#45;&gt;references</title>
<path fill="none" stroke="black" d="M346.8,-439.94C340.39,-415.72 332.5,-374.26 341.5,-339.95 344.49,-328.57 350.12,-317.07 355.99,-307.16"/>
<polygon fill="black" stroke="black" points="358.91,-309.1 361.27,-298.77 352.98,-305.37 358.91,-309.1"/>
<text text-anchor="middle" x="349.25" y="-361.47" font-family="Helvetica,sans-Serif" font-size="9.00"> yes</text>
</g>
<!-- do_cpe -->
<g id="node15" class="node">
<title>do_cpe</title>
<polygon fill="none" stroke="black" points="439,-390.35 367,-390.35 367,-339.95 439,-339.95 439,-390.35"/>
<text text-anchor="middle" x="403" y="-361.27" font-family="Helvetica,sans-Serif" font-size="10.00">Add CPE</text>
</g>
<!-- cpe&#45;&gt;do_cpe -->
<g id="edge36" class="edge">
<title>cpe&#45;&gt;do_cpe</title>
<path fill="none" stroke="black" d="M362.4,-442.59C368.69,-430.76 377.16,-414.81 384.74,-400.54"/>
<polygon fill="black" stroke="black" points="387.74,-402.34 389.34,-391.87 381.56,-399.06 387.74,-402.34"/>
<text text-anchor="middle" x="385.38" y="-409.55" font-family="Helvetica,sans-Serif" font-size="9.00"> no</text>
</g>
<!-- do_references -->
<g id="node16" class="node">
<title>do_references</title>
<polygon fill="none" stroke="black" points="386,-206.8 314,-206.8 314,-156.4 386,-156.4 386,-206.8"/>
<text text-anchor="middle" x="350" y="-183.35" font-family="Helvetica,sans-Serif" font-size="10.00">Add</text>
<text text-anchor="middle" x="350" y="-172.1" font-family="Helvetica,sans-Serif" font-size="10.00">references</text>
</g>
<!-- references&#45;&gt;do_references -->
<g id="edge38" class="edge">
<title>references&#45;&gt;do_references</title>
<path fill="none" stroke="black" d="M369.97,-254.91C366.94,-243.93 363.19,-230.35 359.76,-217.94"/>
<polygon fill="black" stroke="black" points="363.17,-217.13 357.13,-208.43 356.42,-219 363.17,-217.13"/>
<text text-anchor="middle" x="371.25" y="-226" font-family="Helvetica,sans-Serif" font-size="9.00"> yes</text>
</g>
<!-- enrich_stop -->
<g id="node29" class="node">
<title>enrich_stop</title>
<path fill="none" stroke="black" d="M374,-119.4C374,-119.4 326,-119.4 326,-119.4 320,-119.4 314,-113.4 314,-107.4 314,-107.4 314,-81 314,-81 314,-75 320,-69 326,-69 326,-69 374,-69 374,-69 380,-69 386,-75 386,-81 386,-81 386,-107.4 386,-107.4 386,-113.4 380,-119.4 374,-119.4"/>
<text text-anchor="middle" x="350" y="-95.95" font-family="Helvetica,sans-Serif" font-size="10.00">Stop</text>
<text text-anchor="middle" x="350" y="-84.7" font-family="Helvetica,sans-Serif" font-size="10.00">enrichment</text>
</g>
<!-- references&#45;&gt;enrich_stop -->
<g id="edge39" class="edge">
<title>references&#45;&gt;enrich_stop</title>
<path fill="none" stroke="black" d="M384.95,-256.27C394.29,-231.94 406.14,-190.37 395,-156.4 391.8,-146.66 386.4,-137.19 380.42,-128.73"/>
<polygon fill="black" stroke="black" points="383.27,-126.69 374.43,-120.84 377.69,-130.92 383.27,-126.69"/>
<text text-anchor="middle" x="405.38" y="-177.93" font-family="Helvetica,sans-Serif" font-size="9.00"> no</text>
</g>
<!-- do_cwe&#45;&gt;cvss -->
<g id="edge31" class="edge">
<title>do_cwe&#45;&gt;cvss</title>
<path fill="none" stroke="black" d="M388.81,-707.01C382.68,-696.54 375.48,-684.25 369.15,-673.44"/>
<polygon fill="black" stroke="black" points="372.25,-671.8 364.18,-664.94 366.21,-675.34 372.25,-671.8"/>
</g>
<!-- do_cvss&#45;&gt;cpe -->
<g id="edge34" class="edge">
<title>do_cvss&#45;&gt;cpe</title>
<path fill="none" stroke="black" d="M388.81,-523.46C382.64,-512.92 375.38,-500.52 369.02,-489.66"/>
<polygon fill="black" stroke="black" points="372.09,-487.98 364.02,-481.12 366.05,-491.52 372.09,-487.98"/>
</g>
<!-- do_cpe&#45;&gt;references -->
<g id="edge37" class="edge">
<title>do_cpe&#45;&gt;references</title>
<path fill="none" stroke="black" d="M395.34,-339.91C392.51,-330.97 389.27,-320.71 386.25,-311.17"/>
<polygon fill="black" stroke="black" points="389.66,-310.35 383.31,-301.87 382.99,-312.46 389.66,-310.35"/>
</g>
<!-- do_references&#45;&gt;enrich_stop -->
<g id="edge40" class="edge">
<title>do_references&#45;&gt;enrich_stop</title>
<path fill="none" stroke="black" d="M350,-156.36C350,-148.49 350,-139.59 350,-131.06"/>
<polygon fill="black" stroke="black" points="353.5,-131.31 350,-121.31 346.5,-131.31 353.5,-131.31"/>
</g>
<!-- github -->
<g id="node17" class="node">
<title>github</title>
<polygon fill="none" stroke="black" points="168,-670.05 96,-670.05 96,-619.65 168,-619.65 168,-670.05"/>
<text text-anchor="middle" x="132" y="-640.98" font-family="Helvetica,sans-Serif" font-size="10.00">GitHub</text>
</g>
<!-- publish_stop -->
<g id="node23" class="node">
<title>publish_stop</title>
<path fill="none" stroke="black" d="M156,-573.9C156,-573.9 108,-573.9 108,-573.9 102,-573.9 96,-567.9 96,-561.9 96,-561.9 96,-535.5 96,-535.5 96,-529.5 102,-523.5 108,-523.5 108,-523.5 156,-523.5 156,-523.5 162,-523.5 168,-529.5 168,-535.5 168,-535.5 168,-561.9 168,-561.9 168,-567.9 162,-573.9 156,-573.9"/>
<text text-anchor="middle" x="132" y="-550.45" font-family="Helvetica,sans-Serif" font-size="10.00">Stop</text>
<text text-anchor="middle" x="132" y="-539.2" font-family="Helvetica,sans-Serif" font-size="10.00">publishing</text>
</g>
<!-- github&#45;&gt;publish_stop -->
<g id="edge25" class="edge">
<title>github&#45;&gt;publish_stop</title>
<path fill="none" stroke="black" d="M132,-619.6C132,-609.25 132,-596.96 132,-585.59"/>
<polygon fill="black" stroke="black" points="135.5,-585.7 132,-575.7 128.5,-585.7 135.5,-585.7"/>
</g>
<!-- adp -->
<g id="node18" class="node">
<title>adp</title>
<polygon fill="none" stroke="black" points="258,-670.05 186,-670.05 186,-619.65 258,-619.65 258,-670.05"/>
<text text-anchor="middle" x="222" y="-640.98" font-family="Helvetica,sans-Serif" font-size="10.00">ADP</text>
</g>
<!-- adp&#45;&gt;publish_stop -->
<g id="edge26" class="edge">
<title>adp&#45;&gt;publish_stop</title>
<path fill="none" stroke="black" d="M198.82,-619.6C187.99,-608.27 174.93,-594.61 163.24,-582.38"/>
<polygon fill="black" stroke="black" points="165.9,-580.1 156.46,-575.29 160.84,-584.93 165.9,-580.1"/>
</g>
<!-- publish -->
<g id="node19" class="node">
<title>publish</title>
<polygon fill="none" stroke="black" points="244,-757.45 172,-757.45 172,-707.05 244,-707.05 244,-757.45"/>
<text text-anchor="middle" x="208" y="-728.38" font-family="Helvetica,sans-Serif" font-size="10.00">Publish</text>
</g>
<!-- publish&#45;&gt;github -->
<g id="edge21" class="edge">
<title>publish&#45;&gt;github</title>
<path fill="none" stroke="black" d="M186.42,-707.01C178.63,-698.25 169.69,-688.2 161.34,-678.82"/>
<polygon fill="black" stroke="black" points="164.16,-676.73 154.9,-671.58 158.93,-681.38 164.16,-676.73"/>
</g>
<!-- publish&#45;&gt;adp -->
<g id="edge22" class="edge">
<title>publish&#45;&gt;adp</title>
<path fill="none" stroke="black" d="M211.97,-707.01C213.26,-699.14 214.72,-690.24 216.12,-681.71"/>
<polygon fill="black" stroke="black" points="219.56,-682.38 217.72,-671.94 212.65,-681.25 219.56,-682.38"/>
</g>
<!-- cna -->
<g id="node20" class="node">
<title>cna</title>
<polygon fill="none" stroke="black" points="249.75,-853.6 166.25,-853.6 166.25,-803.2 249.75,-803.2 249.75,-853.6"/>
<text text-anchor="middle" x="208" y="-830.15" font-family="Helvetica,sans-Serif" font-size="10.00">Get latest CNA</text>
<text text-anchor="middle" x="208" y="-818.9" font-family="Helvetica,sans-Serif" font-size="10.00">container</text>
</g>
<!-- cna&#45;&gt;publish -->
<g id="edge20" class="edge">
<title>cna&#45;&gt;publish</title>
<path fill="none" stroke="black" d="M208,-803.15C208,-792.8 208,-780.51 208,-769.14"/>
<polygon fill="black" stroke="black" points="211.5,-769.25 208,-759.25 204.5,-769.25 211.5,-769.25"/>
</g>
<!-- other&#45;&gt;triage_enrich -->
<g id="edge16" class="edge">
<title>other&#45;&gt;triage_enrich</title>
<path fill="none" stroke="black" d="M210.37,-1103.57C221.59,-1092.58 237.54,-1078.04 253.25,-1067.4 265.17,-1059.33 278.86,-1051.84 291.7,-1045.48"/>
<polygon fill="black" stroke="black" points="292.92,-1048.78 300.41,-1041.29 289.88,-1042.47 292.92,-1048.78"/>
<text text-anchor="middle" x="262.38" y="-1068.6" font-family="Helvetica,sans-Serif" font-size="9.00"> &#160;yes</text>
</g>
<!-- triage_skip -->
<g id="node26" class="node">
<title>triage_skip</title>
<path fill="none" stroke="black" d="M232,-1049.4C232,-1049.4 184,-1049.4 184,-1049.4 178,-1049.4 172,-1043.4 172,-1037.4 172,-1037.4 172,-1011 172,-1011 172,-1005 178,-999 184,-999 184,-999 232,-999 232,-999 238,-999 244,-1005 244,-1011 244,-1011 244,-1037.4 244,-1037.4 244,-1043.4 238,-1049.4 232,-1049.4"/>
<text text-anchor="middle" x="208" y="-1025.95" font-family="Helvetica,sans-Serif" font-size="10.00">Do not</text>
<text text-anchor="middle" x="208" y="-1014.7" font-family="Helvetica,sans-Serif" font-size="10.00">enrich</text>
</g>
<!-- other&#45;&gt;triage_skip -->
<g id="edge15" class="edge">
<title>other&#45;&gt;triage_skip</title>
<path fill="none" stroke="black" d="M198.15,-1096.56C199.63,-1085.84 201.43,-1072.8 203.08,-1060.82"/>
<polygon fill="black" stroke="black" points="206.5,-1061.64 204.4,-1051.26 199.57,-1060.69 206.5,-1061.64"/>
<text text-anchor="middle" x="208.5" y="-1068.6" font-family="Helvetica,sans-Serif" font-size="9.00"> &#160;no</text>
</g>
<!-- error&#45;&gt;stop -->
<g id="edge3" class="edge">
<title>error&#45;&gt;stop</title>
<path fill="none" stroke="black" stroke-dasharray="5,2" d="M33.97,-1587.66C32.23,-1564.36 30,-1528.43 30,-1497.2 30,-1497.2 30,-1497.2 30,-547.7 30,-529.9 36.98,-511.68 44.95,-496.66"/>
<polygon fill="black" stroke="black" points="47.9,-498.55 49.81,-488.13 41.82,-495.09 47.9,-498.55"/>
</g>
<!-- publish_stop&#45;&gt;stop -->
<g id="edge4" class="edge">
<title>publish_stop&#45;&gt;stop</title>
<path fill="none" stroke="black" d="M113.83,-523.46C107.4,-514.88 100.05,-505.06 93.14,-495.85"/>
<polygon fill="black" stroke="black" points="96.14,-494.02 87.34,-488.11 90.54,-498.21 96.14,-494.02"/>
</g>
<!-- triage_start&#45;&gt;exploitation -->
<g id="edge7" class="edge">
<title>triage_start&#45;&gt;exploitation</title>
<path fill="none" stroke="black" d="M229,-1470.96C229,-1463.09 229,-1454.19 229,-1445.66"/>
<polygon fill="black" stroke="black" points="232.5,-1445.91 229,-1435.91 225.5,-1445.91 232.5,-1445.91"/>
</g>
<!-- enrich_start -->
<g id="node28" class="node">
<title>enrich_start</title>
<path fill="none" stroke="black" d="M374,-941C374,-941 326,-941 326,-941 320,-941 314,-935 314,-929 314,-929 314,-902.6 314,-902.6 314,-896.6 320,-890.6 326,-890.6 326,-890.6 374,-890.6 374,-890.6 380,-890.6 386,-896.6 386,-902.6 386,-902.6 386,-929 386,-929 386,-935 380,-941 374,-941"/>
<text text-anchor="middle" x="350" y="-917.55" font-family="Helvetica,sans-Serif" font-size="10.00">Start</text>
<text text-anchor="middle" x="350" y="-906.3" font-family="Helvetica,sans-Serif" font-size="10.00">enrichment</text>
</g>
<!-- triage_enrich&#45;&gt;enrich_start -->
<g id="edge27" class="edge">
<title>triage_enrich&#45;&gt;enrich_start</title>
<path fill="none" stroke="black" d="M340.78,-998.52C342.33,-984.82 344.28,-967.55 345.98,-952.41"/>
<polygon fill="black" stroke="black" points="349.42,-953.18 347.06,-942.85 342.46,-952.39 349.42,-953.18"/>
</g>
<!-- publish_start -->
<g id="node27" class="node">
<title>publish_start</title>
<path fill="none" stroke="black" d="M232,-941C232,-941 184,-941 184,-941 178,-941 172,-935 172,-929 172,-929 172,-902.6 172,-902.6 172,-896.6 178,-890.6 184,-890.6 184,-890.6 232,-890.6 232,-890.6 238,-890.6 244,-896.6 244,-902.6 244,-902.6 244,-929 244,-929 244,-935 238,-941 232,-941"/>
<text text-anchor="middle" x="208" y="-917.55" font-family="Helvetica,sans-Serif" font-size="10.00">Start</text>
<text text-anchor="middle" x="208" y="-906.3" font-family="Helvetica,sans-Serif" font-size="10.00">publishing</text>
</g>
<!-- triage_skip&#45;&gt;publish_start -->
<g id="edge23" class="edge">
<title>triage_skip&#45;&gt;publish_start</title>
<path fill="none" stroke="black" d="M208,-998.52C208,-984.96 208,-967.88 208,-952.85"/>
<polygon fill="black" stroke="black" points="211.5,-952.86 208,-942.86 204.5,-952.86 211.5,-952.86"/>
</g>
<!-- publish_start&#45;&gt;cna -->
<g id="edge24" class="edge">
<title>publish_start&#45;&gt;cna</title>
<path fill="none" stroke="black" d="M208,-890.56C208,-882.69 208,-873.79 208,-865.26"/>
<polygon fill="black" stroke="black" points="211.5,-865.51 208,-855.51 204.5,-865.51 211.5,-865.51"/>
</g>
<!-- enrich_start&#45;&gt;cwe -->
<g id="edge28" class="edge">
<title>enrich_start&#45;&gt;cwe</title>
<path fill="none" stroke="black" d="M350,-890.56C350,-882.69 350,-873.79 350,-865.26"/>
<polygon fill="black" stroke="black" points="353.5,-865.51 350,-855.51 346.5,-865.51 353.5,-865.51"/>
</g>
<!-- enrich_stop&#45;&gt;publish_start -->
<g id="edge41" class="edge">
<title>enrich_stop&#45;&gt;publish_start</title>
<path fill="none" stroke="black" d="M318.37,-119.75C302.25,-135.2 286,-156.7 286,-180.6 286,-829.4 286,-829.4 286,-829.4 286,-852.52 270.22,-872.12 252.85,-886.69"/>
<polygon fill="black" stroke="black" points="251.16,-883.57 245.45,-892.5 255.48,-889.08 251.16,-883.57"/>
</g>
</g>
</svg>
